<?xml version="1.0" encoding="UTF-8" standalone="no"?>
<svg
   xmlns:dc="http://purl.org/dc/elements/1.1/"
   xmlns:cc="http://creativecommons.org/ns#"
   xmlns:rdf="http://www.w3.org/1999/02/22-rdf-syntax-ns#"
   xmlns:svg="http://www.w3.org/2000/svg"
   xmlns="http://www.w3.org/2000/svg"
   xmlns:xlink="http://www.w3.org/1999/xlink"
   xmlns:sodipodi="http://sodipodi.sourceforge.net/DTD/sodipodi-0.dtd"
   xmlns:inkscape="http://www.inkscape.org/namespaces/inkscape"
   version="1.1"
   id="Calque_1"
   x="0px"
   y="0px"
   viewBox="0 0 144.17551 105.43314"
   xml:space="preserve"
   sodipodi:docname="CAMEO_SYMBOLE_BLEU FONCÉ.svg"
   width="144.17551"
   height="105.43314"
   inkscape:version="1.0.1 (3bc2e813f5, 2020-09-07)"><metadata
   id="metadata931"><rdf:RDF><cc:Work
       rdf:about=""><dc:format>image/svg+xml</dc:format><dc:type
         rdf:resource="http://purl.org/dc/dcmitype/StillImage" /><dc:title></dc:title></cc:Work></rdf:RDF></metadata><defs
   id="defs929" /><sodipodi:namedview
   pagecolor="#ffffff"
   bordercolor="#666666"
   borderopacity="1"
   objecttolerance="10"
   gridtolerance="10"
   guidetolerance="10"
   inkscape:pageopacity="0"
   inkscape:pageshadow="2"
   inkscape:window-width="1920"
   inkscape:window-height="1043"
   id="namedview927"
   showgrid="false"
   fit-margin-top="0"
   fit-margin-left="0"
   fit-margin-right="0"
   fit-margin-bottom="0"
   inkscape:zoom="7.5345393"
   inkscape:cx="72.109557"
   inkscape:cy="57.715772"
   inkscape:window-x="0"
   inkscape:window-y="0"
   inkscape:window-maximized="1"
   inkscape:current-layer="Calque_1"
   inkscape:document-rotation="0" />
<style
   type="text/css"
   id="style909">
	.st0{fill:#6698FF;}
	.st1{fill:#004EE8;}
	.st2{fill:url(#SVGID_1_);}
	.st3{fill:#B3B3B3;}
	.st4{fill:url(#SVGID_2_);}
	.st5{fill:#EAF5FB;}
	.st6{fill:#6699FF;}
	.st7{fill:url(#SVGID_3_);}
</style>
<symbol
   id="Responsive_Réserve_3"
   viewBox="-22.43 -22.49 57.49 42.05"
   transform="translate(-35.390443,-43.784228)">
	<g
   id="g922">
		<path
   class="st0"
   d="m 5.9,1.59 c -0.51,3 -1.94,5.69 -4,7.74 -2.59,2.59 -6.19,4.2 -10.14,4.2 -3.95,0 -7.56,-1.61 -10.14,-4.2 -1.88,-1.87 -3.23,-4.28 -3.84,-6.96 h 6.78 c 0.6,1.36 1.58,2.53 2.8,3.35 1.26,0.85 2.76,1.34 4.4,1.34 1.1,0 2.12,-0.22 3.06,-0.62 0.22,-0.09 0.43,-0.19 0.63,-0.3 1.12,-0.6 2.04,-1.52 2.69,-2.6 0.79,-1.3 1.35,-2.76 1.42,-3.43 l -12.09,-2.07 c -6.02,-1.06 -9.91,-4.96 -9.91,-10.62 0,-5.31 4.53,-9.79 11.33,-9.91 C 4.56,-22.77 8.43,-9.14 5.9,1.59 Z m -6.03,-8.15 c 0,-5.66 -4.25,-9.91 -9.56,-9.91 -3.61,0 -5.66,2.12 -5.66,4.6 0,2.19 1.7,3.96 5.31,4.6 l 9.91,1.77 z"
   id="path911" />
		<path
   class="st1"
   d="m 27.72,-6 c -0.6,-1.06 -1.44,-1.98 -2.45,-2.66 -1.26,-0.85 -2.76,-1.34 -4.4,-1.34 -1.1,0 -2.12,0.22 -3.06,0.62 -0.21,0.08 -0.42,0.18 -0.62,0.29 -0.95,0.5 -1.74,1.26 -2.4,2.11 -0.03,0.03 -0.05,0.07 -0.08,0.1 -0.85,1.11 -1.48,2.41 -1.65,3.8 v 0.03 l 12.09,2.07 c 6.02,1.06 9.91,4.96 9.91,10.62 0,5.31 -4.53,9.79 -11.33,9.91 C 8.08,19.84 4.21,6.2 6.73,-4.53 c 0.51,-3 1.94,-5.69 4,-7.74 2.59,-2.59 6.19,-4.2 10.14,-4.2 3.95,0 7.56,1.61 10.14,4.2 1.71,1.71 2.99,3.87 3.67,6.27 z M 12.76,3.62 c 0,5.66 4.25,9.91 9.56,9.91 3.61,0 5.66,-2.12 5.66,-4.6 0,-2.19 -1.7,-3.96 -5.31,-4.6 L 12.76,2.56 Z"
   id="path913" />
		<linearGradient
   id="SVGID_1_"
   gradientUnits="userSpaceOnUse"
   x1="-11.6936"
   y1="-2.0264001"
   x2="18.5956"
   y2="-2.0264001">
			<stop
   offset="0.2591"
   style="stop-color:#6698FF"
   id="stop915" />
			<stop
   offset="0.9997"
   style="stop-color:#004EE8"
   id="stop917" />
		</linearGradient>
		<polygon
   class="st2"
   points="18.6,-2.1 -11.69,-7.58 -7.29,-1.07 18.16,3.52 "
   id="polygon920"
   style="fill:url(#SVGID_1_)" />
	</g>
</symbol>
<use
   xlink:href="#Responsive_R%C3%A9serve_3"
   width="57.490002"
   height="42.049999"
   id="XMLID_3_"
   x="-22.43"
   y="-22.49"
   transform="matrix(2.5074,0,0,-2.5074,145.00406,-60.753501)"
   style="overflow:visible" />
</svg>
