<svg xmlns="http://www.w3.org/2000/svg" viewBox="0 0 620.2 798.94"><title>Hitchcock 2</title><g id="0ef5ee5e-4853-4d92-a58e-b4c1262d13ea" data-name="Layer 2"><g id="d1200c0d-6faa-4966-b343-daf5a1f9759d" data-name="Layer 1"><path d="M620.2,778.94v20H26.2c0-11,.19-22-.08-33-.12-4.87-1.06-9.73-1.76-14.58-1.3-9-4.52-17.83-3.18-27.18a4,4,0,0,0-.17-2.44c-5.14-8.49-3-18.24-4.82-27.28-2.73-13.38-5.39-26.77-8.3-40.1C6.2,646.59,4,639,2.2,631.22c-1-4.2-1.38-8.52-2.08-12.78L0,588.34c.75-5.07,1.38-10.16,2.22-15.22C4.71,558,6.81,542.77,10,527.78a338,338,0,0,1,9.34-33.34c4.62-14.4,8.09-29.51,15.09-42.71,11.72-22.15,25.71-43.11,39-64.39,4.15-6.62,8.22-13.9,14.1-18.71a166.84,166.84,0,0,0,31.83-34.15c10.85-15.62,18-34,35.08-46.69-4.6-3.3-8.27-6.51-12.45-8.77-5.1-2.76-8.74-6.16-11.18-11.67-4.75-10.68-10.38-21-15.58-31.43a12.72,12.72,0,0,1-1-3.73,60.89,60.89,0,0,0-8.59-23.68c-3.77-6-8.78-12.8-8.81-19.27,0-8.89-5.59-16.1-4.95-24.78.19-2.52-.75-5.14-1.27-7.7-2.64-13-2.61-26.21-1.06-39.48.63-5.46,2.71-10.59,3.9-15.16.67-2.54,11.93-21,17.51-26.69,3.66-3.74,6.94-6.75,10-10.6,3.53-4.45,7.74-8.34,11.44-12.66,2.21-2.58,24-19.71,33-25.36a64.85,64.85,0,0,1,22.48-8.75c8.19-1.52,16.4-2.93,24.56-4.61,11-2.27,22-4.65,32.81-7.76,4.28-1.24,16.52-3.77,18.13-3.94,2.46-.25,4.84-1,7.32-1.29A133.79,133.79,0,0,1,299,1.12c4.54.67,8.83,2.52,13.23,3.8a26.17,26.17,0,0,1,5.28,2.26c9.79,5.91,19.38,12.17,29.29,17.88a110.22,110.22,0,0,1,10.85,6.72C369.12,43,383.36,52,395.7,61.79A10.17,10.17,0,0,1,398.22,65c3.41,6.49,6.19,13.37,10.16,19.48,9.79,15.07,16.25,30.85,15.08,49.34a17.45,17.45,0,0,0,4.41,11.94C436,154,445.35,161,453.57,169.2a194.41,194.41,0,0,1,20.08,23c4.05,5.56,3.24,12.39.09,18.67-3.23,6.44-8.61,8-15.24,7.07a34.58,34.58,0,0,0-5,0c-4.43,0-7.18,2.91-6.16,7,1.27,5.19,3.11,10.23,4.57,15.37,1.91,6.73,6.13,13.43.47,20.42-.34.43.58,2.05,1.14,3,1.49,2.48,3.85,4.69,4.5,7.34,1.17,4.7-1.93,9.13-7.48,12.08-3.42,1.81-6.92,3.46-9.73,4.86,1.18,5.54,3.58,10.72,3.1,15.61-1.66,16.75-17.87,27-33.28,23.61a2.12,2.12,0,0,0-2.17.86c-3.53,4.92-7.36,9.66-11.37,14.21-6.22,7.06-12,14.6-19,20.9-8.92,8.11-18.77,15.2-28.35,22.84.63.43,1.79,1.27,3,2.05q5.88,3.86,11.78,7.69c4.1,2.67,8,7,12.36,7.59,6.23.85,9.94,4.66,13.3,8.4,8.18,9.13,16.58,18.39,22.92,28.8,13.83,22.71,26.42,46.18,39.54,69.31,5.13,9.05,10.15,18.17,15.62,27,2.48,4,6.18,7.25,8.87,11.15,11.76,17.06,23.92,33.88,34.8,51.49,6.58,10.67,16.47,18.8,21.74,30.33a33.44,33.44,0,0,0,5.12,7.15c3.71,4.41,7.95,8.42,11.31,13.07,7.07,9.78,13.27,20.2,20.62,29.75,16.58,21.54,28.93,45.3,38.61,70.56Q614.82,764.67,620.2,778.94Z"/></g></g></svg>