<?xml version="1.0" encoding="UTF-8" standalone="no"?>
<svg
   xmlns:dc="http://purl.org/dc/elements/1.1/"
   xmlns:cc="http://creativecommons.org/ns#"
   xmlns:rdf="http://www.w3.org/1999/02/22-rdf-syntax-ns#"
   xmlns:svg="http://www.w3.org/2000/svg"
   xmlns="http://www.w3.org/2000/svg"
   xmlns:xlink="http://www.w3.org/1999/xlink"
   xmlns:sodipodi="http://sodipodi.sourceforge.net/DTD/sodipodi-0.dtd"
   xmlns:inkscape="http://www.inkscape.org/namespaces/inkscape"
   id="Calque_1"
   data-name="Calque 1"
   viewBox="0 0 473.81759 88.236085"
   version="1.1"
   sodipodi:docname="CAMEO_LOGOS_BLEU FONCEÌ_SANS SIGNATURE.svg"
   width="473.81757"
   height="88.236084"
   inkscape:version="1.0.1 (3bc2e813f5, 2020-09-07)">
  <metadata
     id="metadata22">
    <rdf:RDF>
      <cc:Work
         rdf:about="">
        <dc:format>image/svg+xml</dc:format>
        <dc:type
           rdf:resource="http://purl.org/dc/dcmitype/StillImage" />
        <dc:title></dc:title>
      </cc:Work>
    </rdf:RDF>
  </metadata>
  <sodipodi:namedview
     pagecolor="#ffffff"
     bordercolor="#666666"
     borderopacity="1"
     objecttolerance="10"
     gridtolerance="10"
     guidetolerance="10"
     inkscape:pageopacity="0"
     inkscape:pageshadow="2"
     inkscape:window-width="1680"
     inkscape:window-height="1013"
     id="namedview20"
     showgrid="false"
     fit-margin-top="0"
     fit-margin-left="0"
     fit-margin-right="0"
     fit-margin-bottom="0"
     inkscape:zoom="1.7429088"
     inkscape:cx="236.42646"
     inkscape:cy="41.955298"
     inkscape:window-x="0"
     inkscape:window-y="0"
     inkscape:window-maximized="1"
     inkscape:current-layer="Calque_1" />
  <defs
     id="defs15">
    <style
       id="style2">.cls-1{fill:#004ee8;}.cls-2{fill:#69f;}</style>
    <symbol
       id="ID_CLAIR_3"
       data-name="ID CLAIR 3"
       viewBox="0 0 426.86 79.48">
      <path
         class="cls-1"
         d="m 387.32,0.45 a 39.09,39.09 0 0 1 39.54,39.41 39.55,39.55 0 0 1 -79.09,0 39.1,39.1 0 0 1 39.55,-39.41 M 411,39.86 c 0,-14.35 -10.28,-24.44 -23.72,-24.44 -13.44,0 -23.73,10.09 -23.73,24.44 0,14.35 10.32,24.44 23.77,24.44 13.45,0 23.68,-10.09 23.68,-24.44"
         id="path4" />
      <path
         class="cls-2"
         d="M 144.84,26.57 A 31.48,31.48 0 0 0 83.13,24.87 H 98 a 17.27,17.27 0 0 1 27.52,-5.7 c 3.31,2.72 5.2,8.59 5.43,10.63 l -26.54,4.54 c -13.2,2.32 -21.75,10.83 -21.75,23.22 0,11.62 10,21.41 24.86,21.68 34.36,0.62 42.85,-29.19 37.31,-52.67 M 131.61,44.4 c 0,12.39 -9.32,21.68 -21,21.68 -7.93,0 -12.43,-4.64 -12.43,-10.07 0,-4.8 3.73,-8.67 11.65,-10.06 l 21.75,-3.87 z"
         id="path6" />
      <path
         class="cls-1"
         d="m 325,56.34 a 17.32,17.32 0 0 1 -21.76,7.41 c -0.37,-0.16 -0.74,-0.33 -1.1,-0.51 a 16.7,16.7 0 0 1 -6,-5.41 18.14,18.14 0 0 1 -3.34,-7.94 l 26.54,-4.53 c 13.21,-2.32 21.75,-10.84 21.75,-23.23 0,-11.61 -9.94,-21.41 -24.86,-21.67 -34.36,-0.63 -42.85,29.19 -37.31,52.67 a 31.49,31.49 0 0 0 61.33,3.21 z M 292.17,35.29 c 0,-12.38 9.32,-21.67 21,-21.67 7.93,0 12.44,4.64 12.44,10.06 0,4.8 -3.73,8.67 -11.66,10.07 l -21.75,3.87 z"
         id="path8" />
      <path
         class="cls-1"
         d="m 154.66,1.58 h 15.79 v 11.09 a 24.09,24.09 0 0 1 5.06,-6.34 25,25 0 0 1 17.06,-6.33 27.76,27.76 0 0 1 18,6.33 30.74,30.74 0 0 1 5.68,6.34 A 24.58,24.58 0 0 1 222.1,6.33 33,33 0 0 1 242.33,0 C 257.34,0 270,12.67 270,32.46 V 77.58 H 254.2 V 32.46 c 0,-11.24 -7,-17.42 -15.8,-17.42 -10.27,0 -18.16,7.92 -18.16,20.58 v 42 h -15.8 V 32.46 c 0,-11.24 -6.95,-17.42 -15.8,-17.42 -10.27,0 -18.17,7.92 -18.17,20.58 v 42 h -15.81 z"
         id="path10" />
      <path
         class="cls-1"
         d="M 39.55,64.5 C 26.1,64.5 15.82,54.42 15.82,40.07 15.82,25.72 26.1,15.63 39.55,15.63 a 23.14,23.14 0 0 1 18.9,9.22 H 76.12 A 39.12,39.12 0 0 0 39.55,0.65 39.1,39.1 0 0 0 0,40.07 39.1,39.1 0 0 0 39.55,79.48 39.05,39.05 0 0 0 78.28,48.19 H 62.06 A 23,23 0 0 1 39.55,64.5 Z"
         id="path12" />
    </symbol>
  </defs>
  <use
     width="426.85999"
     height="79.480003"
     transform="matrix(1.11,0,0,1.11,0.00147729,0.01029888)"
     xlink:href="#ID_CLAIR_3"
     id="use17"
     x="0"
     y="0" />
</svg>
